<svg width="49" height="49" viewBox="0 0 49 49" fill="none" xmlns="http://www.w3.org/2000/svg">
<path fill-rule="evenodd" clip-rule="evenodd" d="M14.5 12.0004C14.5634 12.0004 14.636 12.0009 14.7136 12.0015C14.9078 12.003 15.1335 12.0047 15.3255 11.9986C15.6034 11.9899 15.9808 11.964 16.3578 11.8473C16.7625 11.722 17.2319 11.4712 17.5744 10.9785C17.9057 10.502 18 9.9683 18 9.49994C18 9.03166 17.9058 8.49778 17.5741 8.02114C17.2312 7.52828 16.7614 7.2778 16.3568 7.15286C15.9798 7.03646 15.6025 7.01074 15.3248 7.00216C15.1339 6.99628 14.9089 6.998 14.7153 6.99948C14.637 7.00008 14.5637 7.00064 14.5 7.00064V12.0004Z" fill="#626754" fill-opacity="0.57"/>
<path d="M4.79354 26.6172C4.6009 27.547 4.5 28.5074 4.5 29.49C4.5 33.3196 6.03284 36.8138 8.55508 39.4634C9.4553 40.4092 9.9054 40.882 11.7925 41.691C13.6796 42.5 14.9808 42.5 17.5832 42.5H23.4168C26.0192 42.5 27.3204 42.5 29.2076 41.691C31.0946 40.882 31.5448 40.4092 32.445 39.4634C34.9672 36.8138 36.5 33.3196 36.5 29.49C36.5 29.2248 36.4926 28.961 36.4782 28.699C35.2846 28.0674 33.2786 27.4754 31.128 27.1314C24.989 26.1494 21.7512 31.108 15.5672 30.4374C11.1389 29.9572 7.69518 27.8022 4.79354 26.6172Z" fill="#626754"/>
<path d="M15.5676 30.4374C21.7516 31.108 24.9894 26.1494 31.1284 27.1314C33.279 27.4754 35.285 28.0674 36.4786 28.699C36.0396 20.788 29.0538 14.5 20.5004 14.5C12.7126 14.5 6.22435 19.7128 4.79395 26.6172C7.69559 27.8022 11.1393 29.9572 15.5676 30.4374Z" fill="#626754" fill-opacity="0.57"/>
<path d="M26.5 15.5896V10.5C26.5 7.67158 26.5 6.25736 25.6214 5.37868C24.7426 4.5 23.3284 4.5 20.5 4.5C17.6716 4.5 16.2574 4.5 15.3787 5.37868C14.9776 5.77972 14.7596 6.29232 14.6411 7.00004L14.7153 6.99948C14.9089 6.998 15.1339 6.99628 15.3248 7.00216C15.6025 7.01074 15.9798 7.03646 16.3568 7.15286C16.7614 7.2778 17.2312 7.52828 17.5741 8.02114C17.9058 8.49778 18 9.03166 18 9.49994C18 9.9683 17.9057 10.502 17.5744 10.9785C17.2319 11.4712 16.7625 11.722 16.3578 11.8473C15.9808 11.964 15.6034 11.9899 15.3255 11.9986C15.1335 12.0047 14.9076 12.003 14.7135 12.0015C14.6359 12.0009 14.5633 12.0004 14.5 12.0004V15.5896C16.3529 14.8869 18.3782 14.5 20.5 14.5C22.6218 14.5 24.6472 14.8869 26.5 15.5896Z" fill="#626754"/>
<path d="M4.79354 26.6172C4.6009 27.547 4.5 28.5074 4.5 29.49C4.5 33.3196 6.03284 36.8138 8.55508 39.4634C9.4553 40.4092 9.9054 40.882 11.7925 41.691C13.6796 42.5 14.9808 42.5 17.5832 42.5H23.4168C26.0192 42.5 27.3204 42.5 29.2076 41.691C31.0946 40.882 31.5448 40.4092 32.445 39.4634C34.9672 36.8138 36.5 33.3196 36.5 29.49C36.5 29.2248 36.4926 28.961 36.4782 28.699C35.2846 28.0674 33.2786 27.4754 31.128 27.1314C24.989 26.1494 21.7512 31.108 15.5672 30.4374C11.1389 29.9572 7.69518 27.8022 4.79354 26.6172Z" fill="#626754"/>
<path d="M41.5961 11.2567C44.1025 12.5494 45.1959 15.0494 44.0383 16.8407C42.8805 18.6319 39.9103 19.036 37.4041 17.7433C34.8977 16.4506 33.8043 13.9506 34.9619 12.1593C36.1197 10.3681 39.0899 9.964 41.5961 11.2567Z" fill="#626754"/>
<path d="M26.5 12H29.1394C30.459 12 31.7604 12.3072 32.9406 12.8974L34.5004 13.6773C34.51 13.1457 34.6588 12.6282 34.9618 12.1593C35.2402 11.7288 35.623 11.3785 36.079 11.1125L34.2822 10.2141C32.6854 9.41568 30.9248 9 29.1394 9H26.5V12Z" fill="#626754" fill-opacity="0.57"/>
</svg>
