<svg width="48" height="49" viewBox="0 0 48 49" fill="none" xmlns="http://www.w3.org/2000/svg">
<path d="M24 14.75C21.38 14.75 19.25 16.88 19.25 19.5C19.25 22.07 21.26 24.15 23.88 24.24C23.96 24.23 24.04 24.23 24.1 24.24C24.12 24.24 24.13 24.24 24.15 24.24C24.16 24.24 24.16 24.24 24.17 24.24C26.73 24.15 28.74 22.07 28.75 19.5C28.75 16.88 26.62 14.75 24 14.75Z" fill="#B4CD6D"/>
<path d="M29.08 26.8999C26.29 25.0399 21.74 25.0399 18.93 26.8999C17.66 27.7499 16.96 28.8999 16.96 30.1299C16.96 31.3599 17.66 32.4999 18.92 33.3399C20.32 34.2799 22.16 34.7499 24 34.7499C25.84 34.7499 27.68 34.2799 29.08 33.3399C30.34 32.4899 31.04 31.3499 31.04 30.1099C31.03 28.8799 30.34 27.7399 29.08 26.8999Z" fill="#80AD01"/>
</svg>
