<svg width="24" height="25" viewBox="0 0 24 25" fill="none" xmlns="http://www.w3.org/2000/svg">
<path d="M15.6802 4.71C16.1602 5.42 16.4402 6.27 16.4402 7.19C16.4302 9.59 14.5402 11.54 12.1602 11.62C12.0602 11.61 11.9402 11.61 11.8302 11.62C9.6202 11.55 7.8302 9.86 7.5902 7.7C7.3002 5.13 9.4102 2.75 11.9902 2.75" stroke="#6B6B6B" stroke-linecap="round" stroke-linejoin="round"/>
<path d="M6.9898 15.31C4.5698 16.93 4.5698 19.57 6.9898 21.18C9.7398 23.02 14.2498 23.02 16.9998 21.18C19.4198 19.56 19.4198 16.92 16.9998 15.31C14.2698 13.48 9.7598 13.48 6.9898 15.31Z" stroke="#6B6B6B" stroke-linecap="round" stroke-linejoin="round"/>
</svg>
