<svg width="21" height="20" viewBox="0 0 21 20" fill="none" xmlns="http://www.w3.org/2000/svg">
<path d="M3.00879 9.3501V13.0918C3.00879 16.8334 4.50879 18.3334 8.25046 18.3334H12.7421C16.4838 18.3334 17.9838 16.8334 17.9838 13.0918V9.3501" stroke="#6B6B6B" stroke-linecap="round" stroke-linejoin="round"/>
<path d="M10.4997 9.99984C12.0247 9.99984 13.1497 8.75817 12.9997 7.23317L12.4497 1.6665H8.55808L7.99975 7.23317C7.84975 8.75817 8.97475 9.99984 10.4997 9.99984Z" stroke="#6B6B6B" stroke-linecap="round" stroke-linejoin="round"/>
<path d="M15.7587 9.99984C17.442 9.99984 18.6753 8.63317 18.5087 6.95817L18.2753 4.6665C17.9753 2.49984 17.142 1.6665 14.9587 1.6665H12.417L13.0003 7.50817C13.142 8.88317 14.3837 9.99984 15.7587 9.99984Z" stroke="#6B6B6B" stroke-linecap="round" stroke-linejoin="round"/>
<path d="M5.19966 9.99984C6.57466 9.99984 7.81632 8.88317 7.94966 7.50817L8.13299 5.6665L8.53299 1.6665H5.99133C3.80799 1.6665 2.97466 2.49984 2.67466 4.6665L2.44966 6.95817C2.28299 8.63317 3.51632 9.99984 5.19966 9.99984Z" stroke="#6B6B6B" stroke-linecap="round" stroke-linejoin="round"/>
<path d="M10.5003 14.1665C9.10866 14.1665 8.41699 14.8582 8.41699 16.2498V18.3332H12.5837V16.2498C12.5837 14.8582 11.892 14.1665 10.5003 14.1665Z" stroke="#6B6B6B" stroke-linecap="round" stroke-linejoin="round"/>
</svg>
