<svg width="11" height="12" viewBox="0 0 11 12" fill="none" xmlns="http://www.w3.org/2000/svg">
<path d="M10.9712 4.94196C10.8988 4.71923 10.7012 4.56153 10.4684 4.54047L7.29306 4.25219L6.03813 1.31415C5.94548 1.0983 5.73466 0.958984 5.50001 0.958984C5.26535 0.958984 5.05445 1.0983 4.96239 1.31415L3.70746 4.25219L0.531585 4.54047C0.298778 4.56195 0.101639 4.71965 0.0287928 4.94196C-0.0436342 5.1647 0.0232538 5.409 0.199328 5.56343L2.59966 7.66817L1.89192 10.7853C1.84014 11.0145 1.9291 11.2515 2.11927 11.389C2.22149 11.4632 2.34159 11.5003 2.4621 11.5003C2.56567 11.5003 2.66931 11.4728 2.76188 11.4174L5.50001 9.78022L8.23763 11.4174C8.43846 11.5374 8.69099 11.5264 8.88074 11.389C9.07092 11.2515 9.15987 11.0145 9.10809 10.7853L8.40036 7.66817L10.8007 5.56343C10.9767 5.409 11.0436 5.1652 10.9712 4.94196Z" fill="#C4C6C2"/>
</svg>
